# xmcd
# 
# Track frame offsets:
#     150
#     12229
#     24110
#     37546
#     49382
#     62091
#     75290
#     89896
#     103197
#     118089
#     131546
#     143617
#     155057
#     167805
#     179703
# 
# Disc length: 2570
# 
# Revision: 1
# Processed by: cddbd v1.5.2PL0 Copyright (c) Steve Scherf et al.
# Submitted via: fre:ac v1.0.27
# 
DISCID=c30a080f
DTITLE=Ruth Brown - The Definitive Soul Collection - CD1
DYEAR=2007
DGENRE=Soul
TTITLE0=So Long
TTITLE1=I'll Get Along Somehow
TTITLE2=Teardrops From My Eyes
TTITLE3=I'll Wait For You
TTITLE4=I Know
TTITLE5=Shine On (Big Bright Moon, Shine On)
TTITLE6=5-10-15 Hours
TTITLE7=Daddy Daddy
TTITLE8=Have A Good Time
TTITLE9=(Mama) He Treats Your Daughter Mean
TTITLE10=R.B. Blues
TTITLE11=Wild Wild Young Men
TTITLE12=Mend Your Ways
TTITLE13=Hello Little Boy
TTITLE14=Oh What A Dream
EXTD=
EXTT0=
EXTT1=
EXTT2=
EXTT3=
EXTT4=
EXTT5=
EXTT6=
EXTT7=
EXTT8=
EXTT9=
EXTT10=
EXTT11=
EXTT12=
EXTT13=
EXTT14=
PLAYORDER=
